# xmcd CD database file generated by Grip 2.95
# 
# Track frame offsets:
#       150
#       15517
#       30230
#       42272
#       62727
#       75622
#       94385
#       122010
#       135560
#       149930
#       169880
#       182707
# 
# Disc length: 2640 seconds
# 
# Revision: 3
# Processed by: cddbd v1.4b41PL3 Copyright (c) Steve Scherf et al.
# Submitted via: Grip 2.95
# 
DISCID=a20a4e0c
DTITLE=Scott Walker - Scott 2
DYEAR=1900
DGENRE=
TTITLE0=Jackie
TTITLE1=Best Of Both Worlds
TTITLE2=Black Sheep Boy
TTITLE3=The Amorous Humphrey Plugg
TTITLE4=Next
TTITLE5=The Girls From The Streets
TTITLE6=Plastic Palace People
TTITLE7=Wait Until Dark
TTITLE8=The Girls And The Dogs
TTITLE9=Windows Of The World
TTITLE10=The Bridge
TTITLE11=Come Next Spring
EXTD=
EXTT0=
EXTT1=
EXTT2=
EXTT3=
EXTT4=
EXTT5=
EXTT6=
EXTT7=
EXTT8=
EXTT9=
EXTT10=
EXTT11=
PLAYORDER=
